<?xml version="1.0" encoding="UTF-8" standalone="no"?>
<!-- Created with Inkscape (http://www.inkscape.org/) -->

<svg
   xmlns:dc="http://purl.org/dc/elements/1.1/"
   xmlns:cc="http://creativecommons.org/ns#"
   xmlns:rdf="http://www.w3.org/1999/02/22-rdf-syntax-ns#"
   xmlns:svg="http://www.w3.org/2000/svg"
   xmlns="http://www.w3.org/2000/svg"
   xmlns:sodipodi="http://sodipodi.sourceforge.net/DTD/sodipodi-0.dtd"
   xmlns:inkscape="http://www.inkscape.org/namespaces/inkscape"
   version="1.1"
   id="svg2"
   xml:space="preserve"
   width="159"
   height="52"
   viewBox="0 0 159 52"
   sodipodi:docname="logo.svg"
   inkscape:version="0.92.3 (2405546, 2018-03-11)"><metadata
     id="metadata8"><rdf:RDF><cc:Work
         rdf:about=""><dc:format>image/svg+xml</dc:format><dc:type
           rdf:resource="http://purl.org/dc/dcmitype/StillImage" /><dc:title></dc:title></cc:Work></rdf:RDF></metadata><defs
     id="defs6"><clipPath
       clipPathUnits="userSpaceOnUse"
       id="clipPath20"><path
         d="m 1275.46,2483.09 c -151.88,88.55 -455.808,266.07 -607.722,354.64 -6.14,3.59 -13.859,5.39 -20.761,5.39 -6.872,0 -13.805,-1.8 -19.946,-5.39 C 475.363,2749.29 171.637,2571.57 19.9648,2483.09 7.79297,2475.99 0,2462.9 0,2448.77 v -709.29 c 0,-14.13 7.75781,-27.21 19.9336,-34.32 151.7184,-88.5 455.1644,-266.15 606.9024,-354.64 6.137,-3.59 13.078,-5.39 19.945,-5.39 6.879,0 13.817,1.8 19.965,5.39 151.988,88.62 456.714,265.98 608.704,354.64 12.17,7.1 21.63,20.19 21.63,34.32 v 709.29 c 0,14.13 -9.44,27.22 -21.62,34.32"
         id="path18"
         inkscape:connector-curvature="0"
         style="clip-rule:evenodd" /></clipPath><clipPath
       clipPathUnits="userSpaceOnUse"
       id="clipPath30"><path
         d="m 2844.02,2483.09 c -151.81,88.67 -455.9,265.91 -607.72,354.64 -6.14,3.58 -13.86,5.39 -20.76,5.39 -6.87,0 -13.8,-1.81 -19.94,-5.39 -151.58,-88.61 -455.5,-265.99 -607.07,-354.64 -12.18,-7.09 -19.97,-20.19 -19.97,-34.32 v -709.29 c 0,-14.13 7.74,-27.23 19.94,-34.32 151.61,-88.66 455.27,-265.97 606.89,-354.64 6.14,-3.58 13.08,-5.39 19.95,-5.39 6.88,0 13.82,1.81 19.97,5.39 151.89,88.79 456.77,265.89 608.7,354.64 12.17,7.09 21.63,20.19 21.63,34.32 v 709.29 c 0,14.13 -9.43,27.23 -21.62,34.32"
         id="path28"
         inkscape:connector-curvature="0"
         style="clip-rule:evenodd" /></clipPath><clipPath
       clipPathUnits="userSpaceOnUse"
       id="clipPath40"><path
         d="m 2053.71,1137.96 c -151.81,88.68 -455.91,265.92 -607.72,354.64 -6.14,3.57 -13.86,5.38 -20.77,5.38 -6.87,0 -13.79,-1.81 -19.94,-5.38 -151.57,-88.62 -455.491,-265.99 -607.065,-354.64 -12.18,-7.09 -19.969,-20.19 -19.969,-34.32 V 394.352 c 0,-14.133 7.746,-27.231 19.934,-34.321 C 949.801,271.371 1253.45,94.0625 1405.08,5.39063 1411.22,1.80859 1418.16,0 1425.03,0 c 6.88,0 13.82,1.80859 19.96,5.39063 151.9,88.78907 456.77,265.89037 608.71,354.64037 12.17,7.09 21.63,20.188 21.63,34.321 v 709.288 c 0,14.13 -9.44,27.23 -21.62,34.32"
         id="path38"
         inkscape:connector-curvature="0"
         style="clip-rule:evenodd" /></clipPath><clipPath
       clipPathUnits="userSpaceOnUse"
       id="clipPath50"><path
         d="M 0,0 H 12865 V 4200 H 0 Z"
         id="path48"
         inkscape:connector-curvature="0" /></clipPath><clipPath
       clipPathUnits="userSpaceOnUse"
       id="clipPath56"><path
         d="m 3610.21,3840.34 c -151.81,88.68 -455.91,265.92 -607.72,354.63 -6.15,3.58 -13.87,5.39 -20.77,5.39 -6.87,0 -13.8,-1.81 -19.94,-5.39 -151.58,-88.61 -455.5,-265.99 -607.07,-354.63 -12.18,-7.09 -19.97,-20.19 -19.97,-34.32 v -709.29 c 0,-14.13 7.75,-27.23 19.94,-34.32 151.62,-88.67 455.27,-265.97 606.89,-354.64 6.15,-3.58 13.08,-5.39 19.96,-5.39 6.88,0 13.82,1.81 19.96,5.39 151.89,88.78 456.77,265.89 608.71,354.64 12.16,7.09 21.62,20.19 21.62,34.32 v 709.29 c 0,14.13 -9.43,27.23 -21.61,34.32"
         id="path54"
         inkscape:connector-curvature="0"
         style="clip-rule:evenodd" /></clipPath></defs><sodipodi:namedview
     pagecolor="#ffffff"
     bordercolor="#666666"
     borderopacity="1"
     objecttolerance="10"
     gridtolerance="10"
     guidetolerance="10"
     inkscape:pageopacity="0"
     inkscape:pageshadow="2"
     inkscape:window-width="1853"
     inkscape:window-height="1016"
     id="namedview4"
     showgrid="false"
     fit-margin-top="0"
     fit-margin-left="0"
     fit-margin-right="0"
     fit-margin-bottom="0"
     inkscape:zoom="4.6919089"
     inkscape:cx="43.362144"
     inkscape:cy="-8.2768312"
     inkscape:window-x="67"
     inkscape:window-y="27"
     inkscape:window-maximized="1"
     inkscape:current-layer="g12" /><g
     id="g10"
     inkscape:groupmode="layer"
     inkscape:label="ink_ext_XXXXXX"
     transform="matrix(1.3333333,0,0,-1.3333333,0,52)"><g
       id="g12"
       transform="scale(0.00926955)"><g
         id="g14"><g
           id="g16"
           clip-path="url(#clipPath20)"><path
             d="M -584.039,3476.43 H 1881.11 V 810.371 H -584.039 V 3476.43"
             style="fill:#590730;fill-opacity:1;fill-rule:nonzero;stroke:none"
             id="path22"
             inkscape:connector-curvature="0" /></g></g><g
         id="g24"><g
           id="g26"
           clip-path="url(#clipPath30)"><path
             d="M 984.527,3427.15 H 3449.68 V 761.102 H 984.527 V 3427.15"
             style="fill:#9e0e3c;fill-opacity:1;fill-rule:nonzero;stroke:none"
             id="path32"
             inkscape:connector-curvature="0" /></g></g><g
         id="g34"><g
           id="g36"
           clip-path="url(#clipPath40)"><path
             d="M 194.211,2082.02 H 2659.36 V -584.039 H 194.211 V 2082.02"
             style="fill:#da4174;fill-opacity:1;fill-rule:nonzero;stroke:none"
             id="path42"
             inkscape:connector-curvature="0" /></g></g><g
         id="g44"><g
           id="g46"
           clip-path="url(#clipPath50)"><g
             id="g52"
             clip-path="url(#clipPath56)"><path
               d="M 1750.71,4784.4 H 4215.86 V 2118.34 H 1750.71 V 4784.4"
               style="fill:#da4074;fill-opacity:1;fill-rule:nonzero;stroke:none"
               id="path58"
               inkscape:connector-curvature="0" /></g></g></g><path
         d="m 4269.38,906.969 c -92.36,53.461 -164.05,128.811 -201.72,211.441 -10.94,21.88 -15.8,43.75 -15.8,64.42 0,12.14 2.43,25.51 6.07,38.88 8.51,25.52 27.95,46.17 57.12,63.19 19.44,10.93 37.67,15.8 53.47,15.8 35.24,0 72.91,-24.31 111.8,-72.91 68.05,-108.16 181.06,-167.71 325.67,-167.71 72.92,0 145.83,19.44 199.3,58.33 57.11,38.89 92.35,96.01 92.35,165.27 0,66.84 -31.6,117.88 -93.57,153.12 -42.53,24.31 -89.92,38.89 -164.05,57.12 l -31.6,8.5 c -161.62,30.39 -284.36,80.2 -369.42,147.05 -100.87,78.98 -150.69,179.83 -150.69,302.58 0,130.02 59.55,243.04 156.76,324.45 96,79 222.39,123.96 353.63,123.96 98.43,0 188.36,-19.45 270.99,-57.12 86.28,-41.31 150.69,-98.43 193.22,-170.13 8.51,-14.58 13.37,-30.38 13.37,-46.18 0,-6.08 -1.22,-13.36 -2.43,-23.09 -6.08,-21.87 -17.01,-41.32 -32.81,-57.11 -18.23,-18.23 -48.61,-29.17 -78.99,-29.17 -29.17,0 -53.47,7.3 -71.7,21.88 -49.82,43.75 -92.36,74.13 -127.6,89.92 -44.96,19.44 -98.43,29.17 -160.41,29.17 -72.91,0 -140.96,-19.44 -189.57,-54.69 -52.25,-35.23 -81.42,-87.49 -81.42,-149.47 0,-69.27 37.67,-114.23 105.73,-148.25 57.11,-27.95 125.17,-46.18 246.68,-71.7 130.03,-34.02 235.76,-76.55 313.53,-139.74 93.57,-75.34 140.96,-174.99 140.96,-297.73 0,-134.89 -58.33,-253.98 -156.76,-341.468 -100.86,-86.281 -238.18,-137.332 -385.22,-137.332 -117.88,0 -230.89,31.609 -326.89,88.719"
         style="fill:#ffffff;fill-opacity:1;fill-rule:nonzero;stroke:none"
         id="path60"
         inkscape:connector-curvature="0" /><path
         d="m 5473.68,834.059 c -64.4,4.863 -111.8,53.461 -111.8,120.3 V 2268 c 0,34.03 12.15,63.19 35.24,86.28 23.09,23.09 52.26,35.24 86.28,35.24 h 648.92 c 32.82,0 61.98,-12.15 85.07,-35.24 23.09,-23.09 34.03,-51.04 34.03,-86.28 0,-68.05 -51.04,-120.31 -119.1,-120.31 h -528.61 v -420.45 h 381.58 c 34.02,1.21 63.19,-9.73 86.28,-32.81 23.08,-23.1 34.02,-51.05 34.02,-86.28 0,-68.06 -52.25,-116.66 -120.3,-116.66 h -381.58 v -416.82 h 528.61 c 68.06,0 119.1,-53.48 119.1,-121.518 0,-34.031 -10.94,-61.98 -34.03,-85.07 -23.09,-23.09 -52.25,-35.242 -85.07,-34.023 h -658.64"
         style="fill:#ffffff;fill-opacity:1;fill-rule:nonzero;stroke:none"
         id="path62"
         inkscape:connector-curvature="0" /><path
         d="M 6470.18,953.152 V 2266.79 c 0,68.04 52.25,119.09 120.31,119.09 h 1.21 c 8.51,0 14.58,-1.22 19.44,-2.43 l 17.01,-3.65 c 13.37,-4.86 25.52,-10.93 35.25,-18.23 l 13.37,-10.94 c 8.5,-8.5 15.79,-18.23 21.87,-29.17 l 721.83,-1008.62 v 957.59 c 0,68.05 54.69,119.09 122.74,119.09 35.24,0 64.41,-10.94 85.06,-34.02 23.1,-24.31 34.03,-52.26 34.03,-85.07 V 953.152 c 0,-53.472 -35.24,-99.652 -85.06,-114.23 -4.87,-1.223 -12.15,-3.652 -21.88,-4.863 h -13.37 c -27.95,0 -53.46,8.5 -75.34,25.511 -10.94,8.512 -18.22,14.582 -21.87,20.672 L 6712,1905.87 V 953.152 c 0,-68.062 -53.46,-119.093 -121.51,-119.093 -68.06,0 -120.31,51.031 -120.31,119.093"
         style="fill:#ffffff;fill-opacity:1;fill-rule:nonzero;stroke:none"
         id="path64"
         inkscape:connector-curvature="0" /><path
         d="m 8322.19,1077.09 c 150.68,0 288.01,55.91 388.86,151.91 100.86,97.21 159.19,229.67 159.19,380.36 0,147.04 -59.54,280.71 -157.97,379.14 -98.43,97.22 -234.54,155.55 -384.01,156.76 H 8175.15 V 1077.09 Z M 8053.62,834.059 c -68.04,0 -120.3,51.031 -120.3,119.093 V 2270.43 c 0,68.05 52.26,119.09 120.3,119.09 h 267.35 c 144.62,0 281.93,-36.46 399.8,-104.51 117.88,-68.05 216.31,-164.06 284.37,-279.49 71.7,-122.74 108.15,-253.98 108.15,-396.16 0,-140.97 -36.45,-272.21 -108.15,-394.94 C 8938.3,1101.4 8843.52,1009.05 8720.77,938.57 8602.9,870.512 8465.59,834.059 8320.97,834.059 h -267.35"
         style="fill:#ffffff;fill-opacity:1;fill-rule:nonzero;stroke:none"
         id="path66"
         inkscape:connector-curvature="0" /><path
         d="m 9463.31,906.969 c -92.35,53.461 -164.05,128.811 -201.72,211.441 -10.94,21.88 -15.8,43.75 -15.8,64.42 0,12.14 2.43,25.51 6.08,38.88 8.5,25.52 27.94,46.17 57.11,63.19 19.45,10.93 37.67,15.8 53.47,15.8 35.25,0 72.91,-24.31 111.8,-72.91 68.05,-108.16 181.06,-167.71 325.68,-167.71 72.91,0 145.82,19.44 199.29,58.33 57.08,38.89 92.38,96.01 92.38,165.27 0,66.84 -31.6,117.88 -93.59,153.12 -42.53,24.31 -89.92,38.89 -164.05,57.12 l -31.61,8.5 c -161.62,30.39 -284.35,80.2 -369.42,147.05 -100.86,78.98 -150.68,179.83 -150.68,302.58 0,130.02 59.55,243.04 156.76,324.45 96,79 222.39,123.96 353.63,123.96 98.42,0 188.36,-19.45 270.96,-57.12 86.3,-41.31 150.7,-98.43 193.2,-170.13 8.6,-14.58 13.4,-30.38 13.4,-46.18 0,-6.08 -1.2,-13.36 -2.4,-23.09 -6.1,-21.87 -17,-41.32 -32.8,-57.11 -18.3,-18.23 -48.6,-29.17 -79,-29.17 -29.2,0 -53.5,7.3 -71.7,21.88 -49.8,43.75 -92.37,74.13 -127.61,89.92 -44.96,19.44 -98.43,29.17 -160.41,29.17 -72.91,0 -140.97,-19.44 -189.57,-54.69 -52.26,-35.23 -81.42,-87.49 -81.42,-149.47 0,-69.27 37.67,-114.23 105.73,-148.25 57.11,-27.95 125.16,-46.18 246.69,-71.7 129.99,-34.02 235.69,-76.55 313.49,-139.74 93.6,-75.34 141,-174.99 141,-297.73 0,-134.89 -58.3,-253.98 -156.8,-341.468 -100.8,-86.281 -238.15,-137.332 -385.19,-137.332 -117.88,0 -230.89,31.609 -326.9,88.719"
         style="fill:#ffffff;fill-opacity:1;fill-rule:nonzero;stroke:none"
         id="path68"
         inkscape:connector-curvature="0" /><path
         d="m 11319,1508.5 -207.8,494.58 -205.4,-494.58 z m 253.9,-602.75 -151.9,360.92 h -616.1 l -149.4,-359.701 c -13.4,-32.817 -35.3,-53.469 -66.9,-64.41 -15.8,-6.067 -30.3,-8.5 -43.7,-8.5 -18.2,0 -35.3,3.64 -52.3,10.933 -43.7,19.449 -68,58.328 -68,103.289 0,20.668 3.6,38.891 12.1,55.899 l 570,1311.21 c 20.6,47.39 60.7,74.13 110.5,74.13 48.7,0 90,-25.52 109.4,-72.91 l 563.9,-1312.43 c 8.5,-17.008 12.1,-35.231 12.1,-55.899 0,-44.961 -24.3,-83.84 -66.8,-103.289 -15.8,-7.293 -32.8,-10.933 -51.1,-10.933 -14.5,0 -29.1,2.433 -42.5,7.293 -30.4,10.937 -53.4,32.8 -69.3,64.398"
         style="fill:#ffffff;fill-opacity:1;fill-rule:nonzero;stroke:none"
         id="path70"
         inkscape:connector-curvature="0" /><path
         d="m 12123.5,953.152 v 526.178 l -475.2,703.61 c -19.4,23.08 -29.1,49.82 -29.1,78.98 0,34.03 14.5,68.06 42.5,93.58 24.3,20.65 52.2,30.38 83.8,30.38 32.8,0 63.2,-14.59 86.3,-42.54 l 412,-624.61 409.5,627.04 c 20.7,25.52 55.9,41.32 89.9,41.32 28,0 53.5,-9.72 76.6,-29.16 30.4,-25.53 44.9,-57.12 44.9,-92.37 0,-27.94 -9.7,-55.89 -30.3,-81.41 l -469.1,-703.6 V 953.152 c 0,-68.062 -53.5,-119.093 -121.5,-119.093 -68.1,0 -120.3,51.031 -120.3,119.093"
         style="fill:#ffffff;fill-opacity:1;fill-rule:nonzero;stroke:none"
         id="path72"
         inkscape:connector-curvature="0" /></g></g></svg>